<svg width="48" height="48" viewBox="0 0 48 48" fill="none" xmlns="http://www.w3.org/2000/svg">
<path d="M40.3008 14.707L40.3922 14.6461C40.2094 14.3109 39.9352 14.0062 39.6609 13.8539L24.9445 5.38357C24.7008 5.23123 24.3656 5.17029 24 5.17029C23.6344 5.17029 23.2992 5.26169 23.0555 5.38357L8.43047 13.8844C7.9125 14.189 7.54688 14.9508 7.54688 15.5297V32.5008C7.54688 32.8359 7.60781 33.2015 7.82109 33.5367L7.76016 33.5672C7.9125 33.8109 8.12578 34.0242 8.33906 34.1461L23.025 42.6469C23.2687 42.7992 23.6039 42.8601 23.9695 42.8601C24.3352 42.8601 24.6703 42.7687 24.9141 42.6469L39.5391 34.1461C40.057 33.8414 40.4227 33.0797 40.4227 32.5008V15.4992C40.4531 15.2554 40.4227 14.9812 40.3008 14.707ZM24 36.0351C17.3578 36.0351 11.9648 30.6422 11.9648 24C11.9648 17.3578 17.3578 11.9648 24 11.9648C28.4789 11.9648 32.3789 14.4328 34.4508 18.0586L30.4898 20.3437C29.2102 18.0586 26.7727 16.5351 24 16.5351C19.8867 16.5351 16.5352 19.8867 16.5352 24C16.5352 28.1133 19.8867 31.4648 24 31.4648C26.7727 31.4648 29.2102 29.9414 30.4898 27.6867L34.4203 30.0023C32.3484 33.5976 28.4484 36.0351 24 36.0351ZM39.5391 23.3906H38.5641L38.2898 24.6094H39.5391V26.1328H38.0156L37.65 27.9609H36.157L36.5227 26.1328H35.3648L34.9992 27.9609H33.5367L33.9023 26.1328H33.1406V24.6094H34.207L34.4812 23.3906H33.1406V21.8672H34.7555L35.1211 20.039H36.6141L36.2484 21.8672H37.4062L37.7719 20.039H39.2344L38.8687 21.8672H39.5391V23.3906ZM35.6695 24.6094H36.8273L37.1016 23.3906H35.9437L35.6695 24.6094Z" fill="#9956F6"/>
</svg>
