<svg width="48" height="48" viewBox="0 0 48 48" fill="none" xmlns="http://www.w3.org/2000/svg">
<path d="M27.6754 2C30.0483 7.60052 19.1672 11.0312 18.1551 15.6992C17.2293 19.9829 24.6018 25.008 24.6086 25.008C23.4831 23.2359 22.6639 21.7414 21.5401 18.9776C19.636 14.3096 33.1422 10.0987 27.6754 2ZM34.8686 9.77539C34.8686 9.77539 25.355 10.3762 24.8726 16.5979C24.6526 19.3685 27.3843 20.8224 27.4639 22.8399C27.5316 24.485 25.8238 25.8525 25.8238 25.8525C25.8238 25.8525 28.8856 25.2991 29.8435 22.7857C30.9014 19.9965 27.7821 18.0924 28.0986 15.8566C28.4032 13.7223 34.8686 9.77539 34.8686 9.77539ZM37.1958 24.1076C36.1972 24.0619 35.0734 24.4325 34.0748 25.1654C36.0449 24.7304 37.7256 25.9659 37.7256 27.3877C37.7256 30.5746 33.1761 33.5755 33.1761 33.5755C33.1761 33.5755 40.2102 32.7885 40.2102 27.5467C40.2102 25.3837 38.8561 24.1871 37.1958 24.1076ZM18.5257 24.1617C16.0716 24.2464 11.1735 24.6509 11.1735 26.5414C11.1735 29.1733 22.5844 29.378 30.7439 27.7583C30.7439 27.7583 32.9645 26.2114 33.5467 25.6427C28.1984 26.753 15.987 26.9256 15.987 25.9592C15.987 25.074 19.9 24.1617 19.9 24.1617C19.9 24.1617 19.3449 24.1346 18.5257 24.1617ZM17.7844 29.0277C16.4422 29.0277 14.4518 30.072 14.4518 31.0892C14.4518 33.1388 24.5561 34.7128 32.0133 31.7239L29.4204 30.138C24.3632 31.7916 15.0205 31.2415 17.7844 29.0277ZM19.0538 33.6279C17.2225 33.6279 16.0394 34.7856 16.0394 35.6386C16.0394 38.262 26.9815 38.521 31.3245 35.8502L28.5742 34.0511C25.3347 35.4474 17.1836 35.6522 19.0538 33.6279ZM12.9184 36.0093C9.93115 35.9501 8 37.3041 8 38.4397C8 44.4888 38.6243 44.1994 38.6243 38.0166C38.6243 36.9926 37.4141 36.5035 36.9842 36.2716C39.4841 42.1819 11.9672 41.7198 11.9672 38.2282C11.9672 37.4361 14.0033 36.6423 15.8803 37.013L14.2944 36.1125C13.8387 36.0462 13.379 36.0128 12.9184 36.0093ZM41.8502 40.0815C37.1958 44.5836 25.4159 46.1965 13.5531 43.414C25.4142 48.3731 41.791 45.6143 41.8502 40.0815Z" fill="#22D3EE"/>
</svg>
