<svg width="48" height="48" viewBox="0 0 48 48" fill="none" xmlns="http://www.w3.org/2000/svg">
<path d="M4.50049 32.6201L9.02774 29.9249C9.90104 31.4488 10.6961 32.7376 12.602 32.7376C14.4283 32.7376 15.5804 32.0379 15.5804 29.2994V10.7023H21.1402V29.3764C21.1402 35.0409 17.765 37.6199 12.841 37.6199C11.1002 37.7126 9.37168 37.2844 7.88311 36.3916C6.39454 35.4989 5.2143 34.1849 4.50049 32.6201ZM24.1612 32.0323L28.6885 29.4534C29.1918 30.4581 29.9731 31.3026 30.9425 31.89C31.912 32.4774 33.0302 32.7838 34.1686 32.774C36.4728 32.774 37.9406 31.6405 37.9406 30.0775C37.9406 28.2024 36.4316 27.5377 33.8899 26.4392L32.5045 25.8599C28.4936 24.1807 25.8324 22.0705 25.8324 17.6164C25.8324 13.5135 29.0099 10.3888 33.9738 10.3888C35.5822 10.2741 37.1893 10.6279 38.5946 11.4061C40 12.1843 41.1413 13.3523 41.8762 14.7646L37.5467 17.5003C37.2625 16.7992 36.7685 16.1997 36.1302 15.7811C35.4919 15.3625 34.7394 15.1447 33.9724 15.1564C33.638 15.1231 33.3002 15.1588 32.9806 15.2611C32.6611 15.3635 32.3667 15.5302 32.1163 15.7508C31.8659 15.9713 31.6649 16.2408 31.5263 16.542C31.3877 16.8433 31.3144 17.1696 31.3112 17.5003C31.3112 19.1417 32.3438 19.805 34.7248 20.8209L36.1144 21.4072C40.8407 23.3998 43.5005 25.4317 43.5005 30.0019C43.5005 34.9248 39.5692 37.6213 34.2881 37.6213C29.1251 37.6213 25.7898 35.1976 24.1612 32.0323Z" fill="#FFCD1E"/>
</svg>
