<svg width="48" height="48" viewBox="0 0 48 48" fill="none" xmlns="http://www.w3.org/2000/svg">
<path d="M25.1219 37.8867C24.7752 37.5802 24.4135 37.2726 24.068 36.9319C23.7918 37.1872 23.533 37.4264 23.2591 37.6645C19.8399 40.6121 16.3155 41.8392 14.2262 40.6463C12.2052 39.5046 11.5685 36.132 12.3774 31.889C12.4636 31.4291 12.5673 30.9692 12.6882 30.5093C12.3254 30.4025 11.9798 30.3042 11.6343 30.1889C7.33224 28.7204 4.5 26.3357 4.5 23.9499C4.5 21.6506 7.14273 19.4186 11.2703 17.9875C11.7326 17.8337 12.2202 17.681 12.7217 17.5443C12.6062 17.1011 12.5149 16.675 12.4282 16.2628C11.5639 11.9557 12.1682 8.51477 14.2066 7.35604C16.3305 6.12897 19.8549 7.44148 23.3943 10.5247C23.6012 10.7115 23.8092 10.9166 24.0333 11.1206C24.3615 10.8141 24.6724 10.5076 25.0005 10.2352C28.3516 7.35177 31.6842 6.14605 33.7226 7.30478C35.8465 8.49662 36.4693 12.1768 35.5195 16.7263C35.4675 17.0167 35.4039 17.2891 35.33 17.5806C35.7621 17.7002 36.1932 17.8359 36.5907 17.9726C40.8049 19.4036 43.5343 21.6356 43.4997 23.9862C43.4997 26.388 40.5808 28.7567 36.1042 30.222C35.8627 30.2903 35.6212 30.3758 35.3785 30.443C35.4825 30.7837 35.5507 31.1244 35.62 31.4651C36.5179 35.8779 35.8268 39.4897 33.7376 40.6826C33.1889 40.9878 32.5579 41.1434 31.9176 41.1311C30.0029 41.1279 27.5716 39.9628 25.1219 37.8867ZM28.5076 31.6338C27.5155 33.0602 26.4251 34.426 25.2432 35.723C25.5714 36.0434 25.8996 36.3371 26.2277 36.6094C29.0773 39.0283 31.7027 39.9318 32.9299 39.2334C33.3047 38.9351 33.6109 38.5703 33.8304 38.1607C34.0499 37.7511 34.1783 37.3049 34.2079 36.8486C34.4573 35.1579 34.3869 33.44 33.9999 31.7716C33.9479 31.4651 33.8844 31.1586 33.7931 30.835C32.0528 31.2114 30.287 31.4783 28.5076 31.6338ZM14.0333 32.1795C13.3261 35.8106 13.8437 38.5168 15.0732 39.2163C15.5088 39.3845 15.9791 39.4622 16.4508 39.4437C16.9225 39.4252 17.384 39.3111 17.8026 39.1095C19.4313 38.4769 20.9145 37.5631 22.1729 36.4172C22.4318 36.2121 22.6733 35.974 22.9333 35.7358C21.7254 34.4384 20.6062 33.0727 19.5822 31.6466C17.8096 31.5098 16.0494 31.26 14.3141 30.8991C14.2066 31.3444 14.1199 31.7694 14.0333 32.1795ZM24.0865 34.5643C24.8469 33.7291 25.606 32.8096 26.3664 31.7876C25.606 31.8218 24.8122 31.8389 24.0172 31.8389C23.2222 31.8389 22.4803 31.8218 21.7373 31.7876C22.5138 32.7915 23.2926 33.7291 24.0865 34.5643ZM20.4581 17.9362C19.8017 18.8728 19.1627 19.8586 18.5584 20.9009C17.954 21.9229 17.4028 22.962 16.9002 23.9979C17.419 25.02 17.9714 26.0591 18.5757 27.1164C19.1801 28.1384 19.8191 29.1455 20.4754 30.097C21.6148 30.1654 22.8073 30.2038 24.016 30.2038C25.2247 30.2038 26.4334 30.1696 27.5913 30.0853C28.213 29.1487 28.852 28.1427 29.4575 27.1036C30.063 26.0644 30.6315 25.0082 31.133 23.9862C30.6315 22.9813 30.0618 21.9421 29.4575 20.902C28.8531 19.8618 28.2141 18.8728 27.5751 17.9373C26.4195 17.8519 25.2259 17.8006 24.0172 17.8006C22.8085 17.8006 21.6159 17.8508 20.4581 17.9362ZM14.7589 29.3334C15.944 29.5836 17.1435 29.7715 18.3515 29.8962C17.9367 29.2491 17.523 28.6008 17.1255 27.9195C16.7453 27.2552 16.3651 26.5909 16.0196 25.9267C15.5193 27.0843 15.1044 28.2281 14.7589 29.3334ZM30.9077 27.9024C30.5102 28.5837 30.1127 29.2309 29.7163 29.8621C30.9425 29.7201 32.1592 29.5154 33.3609 29.2491C32.9857 28.099 32.5476 26.9673 32.0482 25.8583C31.6854 26.5397 31.3052 27.221 30.9077 27.9024ZM11.8054 19.5542C8.2821 20.7813 6.15821 22.568 6.15821 23.967C6.22538 24.4171 6.38807 24.8505 6.63693 25.2423C6.8858 25.6341 7.21594 25.9767 7.60842 26.2503C8.95645 27.2979 10.5023 28.1064 12.1682 28.635C12.479 28.7418 12.8072 28.823 13.1354 28.9255C13.6659 27.2497 14.3061 25.6052 15.0524 24.0012C14.3047 22.4246 13.6701 20.8042 13.1527 19.1505C12.6867 19.2658 12.2375 19.4004 11.8054 19.5542ZM32.9981 23.967C33.7645 25.5506 34.4206 27.178 34.9625 28.839C35.1878 28.7706 35.412 28.7023 35.6188 28.6339C39.4703 27.3737 41.8588 25.4482 41.8715 23.9488C41.8715 22.5519 39.661 20.745 36.051 19.519C35.6882 19.4004 35.2918 19.2808 34.8955 19.1612C34.3722 20.7982 33.7385 22.4032 32.9981 23.967ZM30.8915 20.0487C31.289 20.73 31.6692 21.3953 32.0135 22.0596C32.4934 20.974 32.9085 19.8649 33.2569 18.7372C32.0838 18.4738 30.896 18.2691 29.699 18.1242C30.1138 18.7532 30.5113 19.3844 30.8915 20.0487ZM14.7763 18.7233C15.1229 19.8137 15.5366 20.9212 16.0196 22.0617C16.3663 21.3975 16.7453 20.7332 17.1255 20.0689C17.5057 19.4047 17.902 18.7575 18.3169 18.1263C17.0735 18.2769 15.8995 18.4809 14.7763 18.7233ZM26.0891 11.4826C25.7956 11.7379 25.502 12.0102 25.2074 12.2836C26.4068 13.5646 27.5091 14.9205 28.5065 16.3418C30.2641 16.4986 32.0073 16.772 33.7226 17.1598C33.7919 16.9046 33.8382 16.6483 33.8959 16.3931C34.7048 12.4747 34.2068 9.47593 32.8941 8.72729C32.6059 8.57782 32.2791 8.50397 31.9488 8.5137C30.5379 8.5073 28.3724 9.52292 26.0891 11.4794V11.4826ZM15.0351 8.77001C13.8091 9.46845 13.3249 12.2622 14.0506 15.9424C14.1373 16.3343 14.2239 16.7252 14.3268 17.1342C16.0443 16.7606 17.7869 16.493 19.5429 16.3333C20.5439 14.9102 21.6521 13.5541 22.8593 12.275C22.6698 12.0871 22.4618 11.9173 22.2723 11.7464C19.8688 9.64573 17.5577 8.5372 16.0485 8.5372C15.6938 8.52602 15.3428 8.60665 15.0351 8.77001ZM26.3306 16.1976C25.6183 15.2451 24.8498 14.3296 24.0287 13.4551C23.2522 14.2892 22.4745 15.2098 21.7176 16.1976C22.478 16.1634 23.2372 16.1464 24.0149 16.1464C24.7925 16.1464 25.5702 16.1602 26.3306 16.1976ZM20.5621 24.0353C20.5459 23.5975 20.6234 23.1609 20.79 22.7508C20.9567 22.3406 21.2093 21.9649 21.5334 21.6452C21.8575 21.3254 22.2467 21.0679 22.6786 20.8874C23.1106 20.7069 23.5769 20.607 24.0507 20.5933C25.0067 20.6234 25.9108 21.0027 26.5648 21.6479C27.2188 22.2931 27.5692 23.1517 27.5393 24.0353C27.5701 24.9197 27.22 25.7792 26.5656 26.4252C25.9113 27.0712 25.0064 27.4507 24.0495 27.4805C23.5754 27.4669 23.1089 27.3668 22.6768 27.1861C22.2447 27.0054 21.8554 26.7476 21.5314 26.4275C21.2074 26.1074 20.9549 25.7313 20.7886 25.3208C20.6222 24.9102 20.5453 24.4734 20.5621 24.0353Z" fill="#6278F2"/>
</svg>
