<svg width="48" height="48" viewBox="0 0 48 48" fill="none" xmlns="http://www.w3.org/2000/svg">
<path d="M39.8914 13.1415L25.6688 4.88317C24.7718 4.37228 23.6039 4.37228 22.6999 4.88317L8.32535 13.1415C7.39969 13.674 6.74463 14.6749 6.74463 15.7453V32.2402C6.74463 33.3106 7.41678 34.3118 8.34244 34.8472L12.1402 37.0042C13.9554 37.8983 14.5969 37.8983 15.4229 37.8983C18.1106 37.8983 19.6458 36.2731 19.6458 33.4384V17.1538C19.6458 16.9239 19.5262 16.5817 19.3004 16.5817H17.4868C17.2572 16.5817 16.7431 16.9239 16.7431 17.1535V33.438C16.7431 34.6946 15.6065 35.9451 13.4823 34.883L9.55806 32.6211C9.4213 32.5469 9.32487 32.3976 9.32487 32.2402V15.7453C9.32487 15.5899 9.50387 15.4338 9.64159 15.3541L23.9697 7.10991C24.1035 7.03412 24.3003 7.03412 24.4338 7.10991L38.587 15.3522C38.7225 15.4338 38.6748 15.585 38.6748 15.7453V32.2402C38.6748 32.3976 38.7338 32.5508 38.5999 32.6265L24.3809 40.8756C24.259 40.9488 24.1077 40.9488 23.9742 40.8756L20.3273 38.6988C20.2173 38.635 20.0867 38.6121 19.9813 38.6711C18.9666 39.2462 18.7795 39.3226 17.8277 39.6525C17.5936 39.7341 17.2481 39.8757 17.96 40.2747L22.7328 43.0981C23.1884 43.3613 23.7053 43.4999 24.2316 43.5C24.7612 43.5 25.2798 43.3626 25.7368 43.0981L39.891 34.8472C40.8167 34.3079 41.2553 33.3106 41.2553 32.2402V15.7453C41.2553 14.6749 40.8167 13.6766 39.8914 13.1415ZM28.6476 29.6264C24.8657 29.6264 24.0326 28.583 23.7549 26.7023C23.7226 26.4998 23.5507 26.2575 23.3446 26.2575H21.4962C21.2675 26.2575 21.0837 26.5349 21.0837 26.7626C21.0837 29.1706 22.3928 32.0882 28.648 32.0882C33.176 32.0882 35.772 30.3288 35.772 27.2151C35.772 24.1279 33.6862 23.3177 29.295 22.7365C24.8563 22.1498 24.4054 21.8534 24.4054 20.8136C24.4054 19.9563 24.7873 18.8129 28.0739 18.8129C31.0105 18.8129 32.0929 19.4431 32.5383 21.4225C32.5764 21.6086 32.7463 21.7421 32.9383 21.7421H34.7941C34.9083 21.7421 35.0173 21.696 35.0973 21.6144C35.1747 21.5267 35.2156 21.4167 35.2053 21.2987C34.9179 17.8902 32.6535 16.3017 28.0735 16.3017C23.9997 16.3017 21.5694 18.0221 21.5694 20.9058C21.5694 24.0337 23.9874 24.8981 27.8981 25.2848C32.5764 25.7434 32.9402 26.4272 32.9402 27.3474C32.9402 28.9455 31.6572 29.6264 28.6476 29.6264Z" fill="#84CC16"/>
</svg>
