<svg width="48" height="48" viewBox="0 0 48 48" fill="none" xmlns="http://www.w3.org/2000/svg">
<path d="M19.8261 4.72724C16.745 4.72724 14.2501 7.19311 14.2501 10.2383V13.4757H22.614C23.3745 13.4757 24.0004 14.5761 24.0004 15.3278H10.0759C6.99488 15.3278 4.5 17.7937 4.5 20.8389V28.1267C4.5 31.1719 6.99488 33.6378 10.0759 33.6378H12.3764V28.473C12.3764 25.4278 14.8561 22.9619 17.9371 22.9619H28.1748C31.2559 22.9619 33.7508 20.5111 33.7508 17.4658V10.2382C33.7508 7.193 31.2559 4.72713 28.1748 4.72713L19.8261 4.72724ZM18.4245 7.82914C19.2045 7.82914 19.8261 8.06224 19.8261 9.19938C19.8261 10.3365 19.2045 10.9159 18.4245 10.9159C17.6639 10.9159 17.0381 10.3365 17.0381 9.19938C17.0381 8.06224 17.6639 7.82914 18.4245 7.82914Z" fill="#FFCD1E"/>
<path d="M35.6199 14.3624V19.5272C35.6199 22.5724 33.1441 25.0383 30.063 25.0383H19.8253C16.7443 25.0383 14.2494 27.4853 14.2494 30.5305V37.7581C14.2491 38.4821 14.393 39.1991 14.6731 39.8681C14.9531 40.537 15.3638 41.145 15.8816 41.6571C16.3994 42.1692 17.0142 42.5755 17.6908 42.8527C18.3675 43.1299 19.0928 43.2727 19.8253 43.2729H28.1738C28.9063 43.2727 29.6316 43.1299 30.3083 42.8527C30.985 42.5755 31.5998 42.1692 32.1176 41.6571C32.6354 41.145 33.046 40.537 33.3261 39.8681C33.6061 39.1991 33.7501 38.4821 33.7498 37.7581V34.5207H25.3822C24.6216 34.5207 23.9996 33.4241 23.9996 32.6724H37.9241C38.6566 32.6723 39.3819 32.5295 40.0586 32.2522C40.7352 31.975 41.35 31.5687 41.8678 31.0566C42.3856 30.5445 42.7963 29.9366 43.0763 29.2676C43.3564 28.5986 43.5003 27.8816 43.5 27.1576V19.8736C43.4997 18.412 42.9121 17.0104 41.8665 15.977C40.8209 14.9435 39.4028 14.3628 37.9241 14.3625L35.6199 14.3624ZM16.824 23.062L16.8164 23.0695C16.8398 23.0648 16.8653 23.0664 16.8888 23.062H16.824ZM29.5755 37.0843C30.336 37.0843 30.9619 37.6637 30.9619 38.8008C30.9614 39.1637 30.815 39.5116 30.555 39.7678C30.295 40.0241 29.9427 40.1678 29.5755 40.1673C28.7955 40.1673 28.1739 39.938 28.1739 38.8008C28.1739 37.6637 28.7955 37.0843 29.5755 37.0843Z" fill="#FFCD1E"/>
</svg>
