<svg width="48" height="48" viewBox="0 0 48 48" fill="none" xmlns="http://www.w3.org/2000/svg">
<path d="M25.1221 37.8866C24.7755 37.5801 24.4138 37.2726 24.0683 36.9319C23.7921 37.1871 23.5332 37.4264 23.2594 37.6645C19.8401 40.6121 16.3157 41.8391 14.2265 40.6462C12.2054 39.5046 11.5687 36.132 12.3776 31.889C12.4639 31.4291 12.5675 30.9692 12.6884 30.5092C12.3256 30.4024 11.9801 30.3042 11.6346 30.1888C7.33249 28.7204 4.50024 26.3357 4.50024 23.9499C4.50024 21.6506 7.14298 19.4185 11.2706 17.9875C11.7328 17.8337 12.2204 17.681 12.722 17.5443C12.6064 17.1011 12.5151 16.675 12.4284 16.2627C11.5641 11.9557 12.1684 8.51476 14.2068 7.35603C16.3307 6.12895 19.8551 7.44146 23.3946 10.5246C23.6014 10.7115 23.8094 10.9166 24.0336 11.1206C24.3618 10.8141 24.6726 10.5076 25.0008 10.2352C28.3519 7.35176 31.6845 6.14604 33.7228 7.30477C35.8467 8.4966 36.4696 12.1768 35.5197 16.7262C35.4677 17.0167 35.4042 17.2891 35.3302 17.5806C35.7624 17.7002 36.1934 17.8358 36.5909 17.9725C40.8052 19.4036 43.5346 21.6356 43.4999 23.9862C43.4999 26.388 40.581 28.7567 36.1044 30.222C35.8629 30.2903 35.6214 30.3757 35.3787 30.443C35.4827 30.7837 35.5509 31.1244 35.6203 31.4651C36.5181 35.8778 35.8271 39.4896 33.7379 40.6825C33.1892 40.9878 32.5582 41.1433 31.9179 41.1311C30.0031 41.1279 27.5719 39.9627 25.1221 37.8866ZM28.5079 31.6338C27.5157 33.0601 26.4253 34.426 25.2434 35.723C25.5716 36.0434 25.8998 36.337 26.228 36.6094C29.0776 39.0283 31.7029 39.9318 32.9301 39.2333C33.3049 38.935 33.6111 38.5703 33.8306 38.1607C34.0502 37.751 34.1785 37.3049 34.2082 36.8486C34.4575 35.1579 34.3871 33.44 34.0002 31.7716C33.9482 31.4651 33.8846 31.1585 33.7933 30.835C32.0531 31.2114 30.2872 31.4783 28.5079 31.6338ZM14.0335 32.1795C13.3263 35.8106 13.844 38.5167 15.0735 39.2162C15.5091 39.3845 15.9794 39.4621 16.4511 39.4437C16.9227 39.4252 17.3842 39.3111 17.8029 39.1095C19.4315 38.4769 20.9148 37.5631 22.1732 36.4171C22.432 36.2121 22.6735 35.9739 22.9335 35.7358C21.7256 34.4384 20.6064 33.0727 19.5824 31.6466C17.8099 31.5098 16.0496 31.26 14.3143 30.899C14.2068 31.3444 14.1202 31.7694 14.0335 32.1795ZM24.0867 34.5642C24.8471 33.7291 25.6063 32.8096 26.3666 31.7876C25.6063 31.8217 24.8124 31.8388 24.0174 31.8388C23.2224 31.8388 22.4805 31.8217 21.7375 31.7876C22.514 32.7914 23.2929 33.7291 24.0867 34.5642ZM20.4583 17.9362C19.802 18.8728 19.163 19.8585 18.5586 20.9009C17.9543 21.9229 17.4031 22.962 16.9004 23.9979C17.4192 25.02 17.9716 26.0591 18.5759 27.1163C19.1803 28.1384 19.8193 29.1455 20.4757 30.097C21.615 30.1654 22.8076 30.2038 24.0163 30.2038C25.225 30.2038 26.4337 30.1696 27.5915 30.0853C28.2132 29.1487 28.8522 28.1427 29.4577 27.1035C30.0632 26.0644 30.6318 25.0082 31.1333 23.9862C30.6318 22.9812 30.0621 21.9421 29.4577 20.9019C28.8534 19.8617 28.2144 18.8728 27.5753 17.9373C26.4198 17.8519 25.2261 17.8006 24.0174 17.8006C22.8087 17.8006 21.6162 17.8508 20.4583 17.9362ZM14.7592 29.3334C15.9442 29.5836 17.1437 29.7715 18.3518 29.8962C17.9369 29.249 17.5232 28.6008 17.1257 27.9195C16.7456 27.2552 16.3654 26.5909 16.0199 25.9266C15.5195 27.0843 15.1047 28.2281 14.7592 29.3334ZM30.9079 27.9024C30.5104 28.5837 30.1129 29.2309 29.7166 29.8621C30.9427 29.7201 32.1595 29.5154 33.3612 29.249C32.9859 28.099 32.5478 26.9673 32.0485 25.8583C31.6856 26.5397 31.3054 27.221 30.9079 27.9024ZM11.8056 19.5542C8.28235 20.7813 6.15845 22.5679 6.15845 23.967C6.22562 24.417 6.38831 24.8504 6.63718 25.2423C6.88604 25.6341 7.21619 25.9766 7.60866 26.2502C8.95669 27.2979 10.5026 28.1064 12.1684 28.635C12.4793 28.7418 12.8075 28.8229 13.1356 28.9255C13.6662 27.2497 14.3064 25.6052 15.0527 24.0011C14.3049 22.4245 13.6703 20.8042 13.153 19.1505C12.6869 19.2658 12.2378 19.4004 11.8056 19.5542ZM32.9983 23.967C33.7647 25.5506 34.4209 27.1779 34.9627 28.839C35.1881 28.7706 35.4123 28.7023 35.6191 28.6339C39.4705 27.3737 41.859 25.4482 41.8718 23.9488C41.8718 22.5519 39.6612 20.7449 36.0513 19.5189C35.6884 19.4004 35.2921 19.2808 34.8957 19.1612C34.3724 20.7981 33.7387 22.4032 32.9983 23.967ZM30.8918 20.0486C31.2893 20.73 31.6694 21.3953 32.0138 22.0596C32.4937 20.974 32.9087 19.8648 33.2572 18.7372C32.084 18.4738 30.8963 18.2691 29.6992 18.1242C30.1141 18.7532 30.5116 19.3844 30.8918 20.0486ZM14.7765 18.7233C15.1232 19.8137 15.5369 20.9212 16.0199 22.0617C16.3665 21.3975 16.7456 20.7332 17.1257 20.0689C17.5059 19.4047 17.9023 18.7575 18.3171 18.1263C17.0737 18.2769 15.8997 18.4809 14.7765 18.7233ZM26.0893 11.4826C25.7958 11.7378 25.5023 12.0102 25.2076 12.2836C26.407 13.5646 27.5093 14.9205 28.5067 16.3418C30.2644 16.4986 32.0076 16.772 33.7228 17.1598C33.7922 16.9046 33.8384 16.6483 33.8962 16.393C34.7051 12.4747 34.207 9.47591 32.8943 8.72728C32.6062 8.57781 32.2793 8.50395 31.9491 8.51369C30.5382 8.50728 28.3727 9.5229 26.0893 11.4794V11.4826ZM15.0354 8.77C13.8093 9.46844 13.3251 12.2622 14.0508 15.9424C14.1375 16.3343 14.2242 16.7252 14.327 17.1342C16.0446 16.7606 17.7871 16.493 19.5431 16.3332C20.5441 14.9102 21.6523 13.5541 22.8596 12.275C22.67 12.0871 22.462 11.9173 22.2725 11.7464C19.869 9.64572 17.5579 8.53718 16.0488 8.53718C15.6941 8.526 15.3431 8.60664 15.0354 8.77ZM26.3308 16.1976C25.6185 15.2451 24.8501 14.3296 24.029 13.4551C23.2524 14.2892 22.4748 15.2097 21.7179 16.1976C22.4782 16.1634 23.2374 16.1463 24.0151 16.1463C24.7928 16.1463 25.5705 16.1602 26.3308 16.1976ZM20.5623 24.0353C20.5461 23.5974 20.6236 23.1609 20.7903 22.7508C20.957 22.3406 21.2096 21.9649 21.5337 21.6451C21.8577 21.3254 22.2469 21.0679 22.6789 20.8874C23.1108 20.7069 23.5771 20.607 24.0509 20.5933C25.007 20.6234 25.9111 21.0026 26.565 21.6479C27.219 22.2931 27.5694 23.1517 27.5395 24.0353C27.5704 24.9197 27.2202 25.7792 26.5659 26.4252C25.9116 27.0711 25.0066 27.4507 24.0498 27.4805C23.5757 27.4669 23.1092 27.3668 22.6771 27.1861C22.2449 27.0054 21.8557 26.7476 21.5316 26.4275C21.2076 26.1074 20.9552 25.7313 20.7888 25.3207C20.6225 24.9102 20.5455 24.4734 20.5623 24.0353Z" fill="#22D3EE"/>
</svg>
